<?xml version="1.0" encoding="utf-8"?>
<!-- Generator: Adobe Illustrator 22.0.0, SVG Export Plug-In . SVG Version: 6.00 Build 0)  -->
<svg version="1.1" id="Layer_1" xmlns="http://www.w3.org/2000/svg" xmlns:xlink="http://www.w3.org/1999/xlink" x="0px" y="0px"
	 viewBox="0 0 344.9 600" style="enable-background:new 0 0 344.9 600;" xml:space="preserve">
<style type="text/css">
	.st0{fill:#BBC7D7;}
	.st1{fill:#E2C2C2;}
	.st2{fill:#012539;}
</style>
<g>
	<g>
		<polygon class="st0" points="7.3,300 219.5,600 219.5,0 		"/>
	</g>
	<g>
		<polygon class="st1" points="226.9,300.1 344.9,467 344.9,133.2 		"/>
	</g>
	<g>
		<path class="st2" d="M0,288.9h3.5v11l10.5-11h4.8L7.5,300.2L20,314.1h-4.9L3.5,300.7v13.4H0V288.9z"/>
		<path class="st2" d="M41.5,288.9h3.7l10.2,25.2h-3.8l-2.7-6.6H37.2l-2.7,6.6h-3.6L41.5,288.9z M38.3,304.7h9.5l-4.6-12.4
			L38.3,304.7z"/>
		<path class="st2" d="M69.3,288.9h9c1.3,0,4,0,5.8,1.2c1.9,1.2,2.8,3.1,2.8,5.1c0,1.8-0.7,3.4-1.8,4.5c-1.1,1.1-2.2,1.4-3,1.6
			c2.4,0.6,3.5,1.7,3.8,4.9c0.3,3,0.6,5.1,1.6,7.9h-3.7c-0.6-1.7-0.9-4.8-1.2-6.7c-0.4-3.7-1.3-4.7-5.5-4.7h-4.4v11.4h-3.5V288.9z
			 M72.7,299.8h5.5c0.4,0,2.4,0,3.3-0.6c0.5-0.3,1.7-1.2,1.7-3.3c0-4.1-3.6-4.1-5-4.1h-5.5V299.8z"/>
		<path class="st2" d="M103.1,288.9h3.5v25.2h-3.5V288.9z"/>
		<path class="st2" d="M123.6,288.9h4.9l12.4,20.9v-20.9h3.2v25.2h-4.5l-12.8-21.4v21.4h-3.2V288.9z"/>
		<path class="st2" d="M168.9,288.9h3.7l10.2,25.2H179l-2.7-6.6h-11.7l-2.7,6.6h-3.6L168.9,288.9z M165.7,304.7h9.5l-4.6-12.4
			L165.7,304.7z"/>
		<path class="st2" d="M219.5,288.9h3.5v11l10.5-11h4.8L227,300.2l12.5,13.9h-4.9l-11.6-13.4v13.4h-3.5V288.9z"/>
		<path class="st2" d="M254.6,291.6c2.6-2.8,6.1-3.4,8.4-3.4c7,0,11.4,4.5,11.4,13c0,6.7-2.7,13.5-11.7,13.5
			c-8.6,0-11.4-6.1-11.4-13C251.4,298.8,251.9,294.6,254.6,291.6z M257.3,309.4c1.4,1.8,3.6,2.3,5.6,2.3c2.1,0,4.1-0.6,5.6-2.3
			c2.1-2.5,2.3-6.5,2.3-8.2c0-5.7-1.9-10.1-7.7-10.1c-6.4,0-8,5.1-8,10.3C255.1,304.2,255.5,307.3,257.3,309.4z"/>
		<path class="st2" d="M290,288.9h9c1.3,0,4,0,5.8,1.2c1.9,1.2,2.8,3.1,2.8,5.1c0,1.8-0.7,3.4-1.8,4.5c-1.1,1.1-2.2,1.4-3,1.6
			c2.4,0.6,3.5,1.7,3.8,4.9c0.3,3,0.6,5.1,1.6,7.9h-3.7c-0.6-1.7-0.9-4.8-1.2-6.7c-0.4-3.7-1.3-4.7-5.5-4.7h-4.4v11.4H290V288.9z
			 M293.4,299.8h5.5c0.4,0,2.4,0,3.3-0.6c0.5-0.3,1.7-1.2,1.7-3.3c0-4.1-3.6-4.1-5-4.1h-5.5V299.8z"/>
		<path class="st2" d="M324.1,288.9h4.9l12.4,20.9v-20.9h3.2v25.2h-4.5l-12.8-21.4v21.4h-3.2V288.9z"/>
	</g>
</g>
</svg>
