<?xml version="1.0" encoding="utf-8"?>
<!-- Generator: Adobe Illustrator 22.0.0, SVG Export Plug-In . SVG Version: 6.00 Build 0)  -->
<svg version="1.1" id="Layer_1" xmlns="http://www.w3.org/2000/svg" xmlns:xlink="http://www.w3.org/1999/xlink" x="0px" y="0px"
	 viewBox="0 0 703.6 183.6" style="enable-background:new 0 0 703.6 183.6;" xml:space="preserve">
<style type="text/css">
	.st0{fill:#1EADD0;}
	.st1{fill:#00C39D;}
</style>
<path class="st0" d="M170.5,103.8c-9.7-0.2-18.8-0.4-27.7,0.1c-1.3,4.3-1.3,41-0.1,46c3.1,0.1,6.4,0.3,9.9,0.5
	c1.2,4.5,0.3,9,0.5,13.3c-3.9,1-33,1.3-40.4,0.4c-1.2-4.3-0.2-8.7-0.5-13.7c4.4-0.2,8.4-0.3,12.3-0.4c1.2-4.4,1.3-111.1,0.1-116.2
	c-3.7,0-7.6,0-11.7,0c-1.4-4.8-0.6-9-0.6-13.4c1.7-0.2,3-0.4,4.3-0.4c22.7,0,45.3,0,68-0.1c2.9,0,5.1,0.8,7,2.9
	c4.7,5.2,9.5,10.3,14.4,15.3c1.7,1.7,2.2,3.5,2.2,5.8c-0.1,11.8-0.1,23.7,0,35.5c0,2.7-0.9,4.7-2.7,6.6c-5.8,6-11.4,12.1-17.4,18.6
	c7,15,14,30,21.1,45.4c3,0.1,6,0.3,9.5,0.4c0.6,4.6,0.5,9.1,0,13.9c-11.4,0-22.5,0-33.8,0c-1.2-4.4-0.2-8.9-0.5-13.5
	c2.3-0.3,4.4-0.6,7.2-1.1c-2.8-8.2-6.9-15.3-10.2-22.8C177.9,119.1,174.3,111.7,170.5,103.8z M142.2,88.2c1.2,0.3,2,0.6,2.8,0.6
	c11.2,0,22.3,0,33.5,0c2.5,0,4.4-1.2,6.1-3c2.1-2.4,4.2-4.8,6.5-6.9c1.8-1.8,2.6-3.7,2.5-6.2c-0.1-4.7,0-9.3,0-14
	c0-4,0.9-8.5-0.6-11.8c-1.6-3.7-5.6-6.4-8.5-9.7c-1.8-2.1-3.9-2.7-6.6-2.7c-10.3,0.1-20.7,0-31,0.1c-1.4,0-2.9,0.3-4.6,0.4
	C142.2,52.9,142.2,70.3,142.2,88.2z"/>
<path class="st0" d="M248.5,164.1c0-4.6,0-9,0-14c4.2,0,8.1,0,12.7,0c0.6-10.1,0.2-19.7,0.3-29.3c0.1-9.7,0-19.3,0-29
	c0-9.5,0-19,0-28.5c0-9.6,0-19.3,0-29.4c-4.6-0.2-8.6-0.5-13-0.7c0-4.4,0-8.5,0-12.5c3.8-1.1,84.6-1.3,90.1-0.2
	c0,11.7,0,23.4,0,35.5c-4.3,0-8.5,0-13.2,0c-0.1-7.3-0.2-14.6-0.3-21.6c-4.3-1.1-41.3-1.3-46.3-0.4c-1.2,3.4-1.5,44.9-0.2,50.5
	c4.6,0.9,9.4,0.3,14.2,0.4c5,0.1,10,0,15,0c4.8,0,9.6,0,14.7,0c1,4.5,0.7,8.7,0.2,13.4c-1.9,0.1-3.7,0.2-5.5,0.2
	c-11.2,0-22.3,0-33.5,0c-1.8,0-3.5,0.2-5.6,0.4c0,17.1,0,33.6,0,50.1c3.8,1.1,39.6,1.4,46.2,0.5c1.6-3.4,0.7-7.1,0.8-10.6
	c0.2-3.5,0-6.9,0-10.7c4.6,0,8.7,0,13.4,0c0.5,11.8,0.2,23.7,0.2,35.9C308.6,164.1,278.7,164.1,248.5,164.1z"/>
<path class="st0" d="M438.4,83.1c6.7,7,13,13.6,19.3,20.2c0,13.2,0,26.4,0,39.9c-6.4,6.9-13,13.9-19.6,20.9c-16.2,0-32.1,0-48.2,0
	c-6-6.1-12-12.3-18-18.6c-0.8-0.9-1.7-2.3-1.7-3.4c-0.2-7.1-0.1-14.3-0.1-21.7c4.6-1,8.8-0.6,13.3-0.3c1,3.4,0.6,6.7,0.4,9.9
	c-0.2,4.4,1.6,7.3,4.3,10.6c5.4,6.7,11.8,9.4,20.4,8.4c6.3-0.7,12.7-0.3,19-0.1c2.8,0.1,4.8-0.8,6.6-2.9c1.8-2.2,3.9-4.1,5.6-6.4
	c0.9-1.2,1.6-3,1.6-4.5c0.2-8,0.1-16,0.1-24c0-0.5,0.1-1-0.1-1.5c-1.2-4.3-5.3-6.2-7.8-9.4c-1.4-1.8-3.3-2-5.4-1.9
	c-10.3,0-20.7,0-31,0c-1.8,0-3.7,0-5.9,0c-5.7-6.1-11.6-12.2-17.2-18.5c-1.1-1.2-1.7-3.2-1.8-4.9c-0.2-10.5,0-21-0.1-31.5
	c0-2.1,0.6-3.8,2.1-5.4c5.1-5.3,10.1-10.6,15.1-16c1.6-1.7,3.4-2.4,5.7-2.4c12.7,0.1,25.3,0.1,38,0c2.6,0,4.4,0.9,6.1,2.7
	c4.9,5.4,10.1,10.7,15,16.1c0.8,0.9,1.7,2.3,1.7,3.4c0.2,7,0.1,13.9,0.1,21.4c-2.7,0.1-4.9,0.2-7.2,0.2c-2.2,0-4.3,0-7.1,0
	c-0.1-3.9-0.4-7.5-0.1-11.1c0.3-3.8-0.9-6.7-3.8-9.2c-3.2-2.7-5.6-6.7-9.2-8.2c-3.4-1.5-7.9-0.6-11.8-0.6c-4.8-0.1-9.7,0.1-14.5,0
	c-2.3-0.1-4.1,0.7-5.8,2.4c-8.3,8-8.3,8-8.3,19.3c0,4.2,0,8.3,0,12.5c0,1-0.1,2,0.1,3c0.6,3.8,9.3,11.4,13.2,11.4
	c10.5,0,21,0,31.5,0C434.6,83.1,436.5,83.1,438.4,83.1z"/>
<path class="st0" d="M537.5,150c6.5,0,12.6,0,19,0c0,4.9,0,9.3,0,14.1c-18.1,0-36.2,0-54.6,0c-1-4.3-0.3-8.7-0.4-13.8
	c6.2-0.1,12.3-0.3,18.2-0.4c1.2-4.2,1.3-110.7,0.2-116.1c-9.4-0.5-19-0.1-28.6-0.3c-1.9,3.8-0.9,7.5-1.1,11.1c-0.2,3.6,0,7.3,0,11.4
	c-4.2,0-8.1,0-12.5,0c-0.5-11.7-0.1-23.4-0.2-35.8c11.6-0.7,23.1-0.2,34.5-0.3c11.3-0.1,22.7,0,34,0c11.5,0,22.9,0,34.7,0
	c0,12.2,0,24,0,36.3c-4.1,0.4-8.3,0.4-13,0c0-7.3,0-14.4,0-22.1c-10.1-1.1-19.9-0.2-30-0.5c-0.2,1.9-0.5,3.4-0.5,4.8
	c0,35.7,0,71.3,0,107C537,146.6,537.3,148.1,537.5,150z"/>
<path class="st1" d="M695.6,162.9c-5.7,6-11.6,12.1-17.4,18.3c-1.6,1.7-3.3,2.5-5.7,2.5c-5.1-0.1-10.3,0-15.7,0c0-5,0-9.6,0-14.8
	c3,0,5.7-0.1,8.5,0c2.3,0.1,4.2-0.6,5.7-2.4c1.4-1.6,2.9-3.3,4.6-4.6c3.9-2.8,4-6.5,3.5-10.7c-0.7-5.4-1.2-10.9-1.7-16.3
	c-0.7-7.9-1.3-15.9-2-23.8c-0.1-1.8,0-3.6,0-6c4.4-4,9-8.3,14.1-13c-4.9-4.7-9.5-9.1-14.3-13.6c0.4-6.3,0.8-12.6,1.3-18.9
	c0.5-6,1.1-11.9,1.7-17.8c0.3-3.8,0.6-7.6,1-11.4c0.3-2.7-0.3-4.9-2.5-6.7c-1.4-1.2-2.9-2.4-3.8-3.9c-2.2-3.6-5.4-4.6-9.4-4.2
	c-2.1,0.2-4.3,0-6.9,0c-0.6-5-0.2-9.7-0.3-15.1c3.2-0.1,6.3-0.2,9.4-0.2c3.2,0,6.3,0,10,0c6.5,7,13.2,14.1,19.7,21
	c-1.4,18.4-2.8,36.4-4.1,54.3c4.3,3.8,8.2,7.2,12.1,10.6c0,3.8,0,7.6,0,11.8c-2.9,2.5-5.8,5.2-8.9,7.7c-2.3,1.8-3.1,4-2.9,7
	c1,11.7,2,23.5,2.9,35.3C695.1,152.4,695.3,157.2,695.6,162.9z"/>
<path class="st1" d="M12,108.5c-2.8-2.4-5.6-5.1-8.6-7.4c-2.3-1.8-3.1-3.9-3.3-6.8c-0.4-5.9,0.5-10.7,6.1-14c2.2-1.3,4-3.4,5.8-5
	C10.6,57,9.2,39.2,7.8,21c6.5-6.9,13.1-13.9,19.6-20.9c6.4,0,12.5,0,19.3,0c0.3,5,0.4,9.8-0.1,15c-1.4,0.1-2.5,0.2-3.6,0.2
	c-1.8,0-3.7-0.1-5.5,0c-6,0.4-7.9,6.1-11.9,9.1c-2.2,1.7-1.6,4.2-1.4,6.5c0.6,6.8,1.2,13.6,1.8,20.4c0.5,6,1.1,11.9,1.6,17.9
	c0.2,3,0.3,6,0.4,9.1c-4.6,4.5-9.2,8.8-14.2,13.5c4.7,4.4,9.3,8.7,13.9,13c0,2.8,0.2,5.4,0,8.1c-0.9,12.1-1.3,24.3-3.2,36.2
	c-1,6.8,1.2,11,5.7,15.3c3.1,3,6.2,4.8,10.6,4.3c1.8-0.2,3.6,0,6,0c0,2.8,0,5.1,0,7.3c0,2.3,0,4.6,0,7.1c-6.7,0-12.8,0-19.7,0
	c-6.2-6.6-12.8-13.6-19.4-20.6C9.2,144.8,10.5,127.1,12,108.5z"/>
</svg>
