<?xml version="1.0" encoding="utf-8"?>
<!-- Generator: Adobe Illustrator 22.0.0, SVG Export Plug-In . SVG Version: 6.00 Build 0)  -->
<svg version="1.1" id="Layer_1" xmlns="http://www.w3.org/2000/svg" xmlns:xlink="http://www.w3.org/1999/xlink" x="0px" y="0px"
	 viewBox="0 0 450.5 512" style="enable-background:new 0 0 450.5 512;" xml:space="preserve">
<style type="text/css">
	.st0{fill:#9BDC10;}
	.st1{fill:#C3F850;}
	.st2{fill:#FDFEFB;}
</style>
<g id="gFPwAm_1_">
	<g>
		<path class="st0" d="M0,0c1.3,0,3.7,0,5,0c148.5,0,297,0,445.5,0c0,0.7-28.3,309-41.7,458c-1.5,1.4-2.4,1.7-3.4,2
			c-5.6,1.5-173.2,49.2-178.9,52c-0.7,0-1.3,0-2,0c-1.1-1.2-2.7-1.3-4.1-1.7c-19-5.5-157.2-45.2-175.3-50.4c-1-0.3-1.9-0.6-2.8-2.3
			C41.2,444.8-0.5,0,0,0z M226.4,414.3c0,9.5,0,19,0,28.5c0,9.6-0.1,19.2,0.2,29.4c49.4-14,98-27.8,146.3-41.5
			c2.4-6.1,1.8-12,2.3-17.8c0.8-8.9,1.9-17.8,2.5-26.7c0.3-4.3,0.2-8.7,1-12.9c1.1-5.9,1-11.9,1.7-17.8c0.5-4.9,1.1-9.9,1.4-14.9
			c0.5-8.4,2.2-16.8,2.6-25.2c0.4-9.5,2-18.8,2.4-28.3c0.2-4.6,0.4-9.3,1.1-13.9c0.8-5.6,1.1-11.2,1.8-16.8
			c0.6-5.1,0.8-10.3,1.3-15.4c0.7-8.6,1.9-17.1,2.7-25.7c0.8-9.4,1.1-18.9,2.3-28.3c0.5-4,0.4-8,1-11.9c1.5-9.5,1.7-19.1,2.8-28.7
			c0.6-5.1,0.9-10.2,1.2-15.4c0.3-5,1.5-9.9,1.6-14.8c0.2-6,1.1-11.9,1.4-17.9c0.2-3.9,0.6-7.9,1-11.9c0.6-5.4,1.2-10.9,1.7-16.3
			c0.5-6.1,1-12.2,1.8-18.3c0.5-4.1,0.2-8.2,1.3-12.1c-5-1.3-179.7-1.2-183.6-0.1c-0.8,1.7-0.4,3.6-0.4,5.4c0,14.3,0,28.7,0,43
			c0,2,0.2,4-0.9,5.8c-1.7,0.1-3.3,0.2-5,0.2c-43.3,0-86.6,0-129.9,0c-1.9,0-4-0.5-6,0.9c8.6,95.5,17.2,191,25.7,286.1
			c1.8,1.2,3.1,2,4.6,2.3c5.4,1,10.6,2.8,15.9,4.3c23.7,6.5,47.4,13,71.1,19.5C209.5,409.6,217.9,412,226.4,414.3z"/>
		<path class="st1" d="M224.6,94c1.1-1.8,0.9-3.8,0.9-5.8c0-14.3,0-28.7,0-43c0-1.8-0.4-3.7,0.4-5.4c4-1.1,178.7-1.2,183.6,0.1
			c-1.1,3.9-0.8,8.1-1.3,12.1c-0.8,6.1-1.2,12.2-1.8,18.3c-0.5,5.4-1.1,10.9-1.7,16.3c-0.5,3.9-0.9,8-1,11.9
			c-0.3,6-1.2,11.9-1.4,17.9c-0.2,4.9-1.3,9.9-1.6,14.8c-0.3,5.1-0.6,10.3-1.2,15.4c-1.1,9.5-1.3,19.2-2.8,28.7
			c-0.6,3.9-0.5,7.9-1,11.9c-1.2,9.4-1.4,18.8-2.3,28.3c-0.8,8.6-2,17.1-2.7,25.7c-0.4,5.1-0.7,10.3-1.3,15.4
			c-0.6,5.6-0.9,11.2-1.8,16.8c-0.7,4.6-0.9,9.3-1.1,13.9c-0.4,9.5-2,18.8-2.4,28.3c-0.3,8.4-2.1,16.8-2.6,25.2
			c-0.3,5-0.8,9.9-1.4,14.9c-0.6,5.9-0.6,11.9-1.7,17.8c-0.8,4.2-0.7,8.6-1,12.9c-0.6,8.9-1.7,17.8-2.5,26.7
			c-0.5,5.7,0,11.7-2.3,17.8c-48.3,13.7-97,27.5-146.3,41.5c-0.3-10.2-0.1-19.8-0.2-29.4c0-9.5,0-19,0-28.5c9-3.4,18.5-5.5,27.7-8.2
			c8.7-2.6,17.5-5,26.3-7.5c12.5-3.5,24.9-7,37.4-10.6c7.6-2.2,15.2-4.4,22.7-6.6c1.2-4.5,6.6-56.9,5-60.4
			c-4.5,1.3-9.1,2.5-13.7,3.9c-19.9,5.9-39.8,11.8-59.7,17.8c-12.1,3.6-24.3,6.9-36.3,11c-8.6,3-16.5,2.9-24.4-1.6
			c3.1-0.5,5.8,1.3,8.7,1.9c1.6,0.4,3,1.5,4.7,0.5c0.2-0.3,0.5-0.6,0.5-0.9c0.1-67.2,0.1-134.4,0.2-201.6c0.7-0.1,1.3-0.2,2-0.2
			c23.8,0,47.6,0,71.5,0c1.1,0,2.4-0.2,3.8,1.4c-0.5,18-2.7,36.4-3.6,54.5c1.6,1.3,3,1.1,4.3,1.2c16,0,32,0,48,0
			c1.6,0,3.4,0.3,4.7-1.1c2.5-17,10.5-109.3,9.7-113.1c-1.3-1-2.9-0.5-4.3-0.5c-41.1,0-82.3,0-123.4,0C233.5,94.1,229,94,224.6,94z"
			/>
		<path class="st2" d="M211.5,352.1c7.9,4.4,15.8,4.5,24.4,1.6c11.9-4.1,24.1-7.4,36.3-11c19.9-5.9,39.8-11.9,59.7-17.8
			c4.6-1.4,9.2-2.6,13.7-3.9c1.6,3.5-3.8,55.8-5,60.4c-7.4,2.2-15,4.4-22.7,6.6c-12.5,3.6-24.9,7.1-37.4,10.6
			c-8.8,2.5-17.6,4.9-26.3,7.5c-9.2,2.8-18.7,4.8-27.7,8.2c-8.5-2.3-17-4.7-25.5-7c-23.7-6.5-47.4-13-71.1-19.5
			c-5.3-1.5-10.5-3.3-15.9-4.3c-1.5-0.3-2.8-1-4.6-2.3c-8.5-95.1-17.1-190.6-25.7-286.1c2-1.4,4-0.9,6-0.9c43.3,0,86.6,0,129.9,0
			c1.7,0,3.3-0.1,5-0.2c4.5,0,9,0.1,13.5,0.1c41.1,0,82.3,0,123.4,0c1.5,0,3-0.4,4.3,0.5c0.7,3.8-7.2,96.1-9.7,113.1
			c-1.3,1.4-3.1,1.1-4.7,1.1c-16,0-32,0-48,0c-1.3,0-2.7,0.2-4.3-1.2c0.9-18.1,3.2-36.5,3.6-54.5c-1.4-1.5-2.6-1.4-3.8-1.4
			c-23.8,0-47.6,0-71.5,0c-0.7,0-1.3,0.2-2,0.2c-1-0.1-2-0.4-3-0.4c-24.1,0-48.3,0-72.4,0c-1.1,0-2.4-0.2-3.2,0.8
			c-0.6,5.1,14.9,181.2,16.4,185.8c10.8,3.2,21.8,6.5,32.8,9.5C201.2,349.3,206.2,351.4,211.5,352.1z"/>
		<path class="st0" d="M211.5,352.1c-5.3-0.7-10.2-2.8-15.3-4.2c-11-3.1-22-6.4-32.8-9.5c-1.5-4.6-16.9-180.7-16.4-185.8
			c0.9-1.1,2.1-0.8,3.2-0.8c24.1,0,48.3,0,72.4,0c1,0,2,0.2,3,0.4c-0.1,67.2-0.1,134.4-0.2,201.6c0,0.3-0.3,0.6-0.5,0.9
			c-1.7,1-3.1-0.1-4.7-0.5C217.3,353.4,214.6,351.6,211.5,352.1z"/>
	</g>
</g>
</svg>
